<svg xmlns="http://www.w3.org/2000/svg" height="40" width="40"><path d="M9.75 35V20.083L9 19.375q-.333-.375-.5-.813-.167-.437-.167-.895 0-.459.167-.896.167-.438.5-.771l5.208-5.208h6.084l6.25-6.292 2.75 2.75q1.583 1.542 2.333 3.542.75 2 .792 4.041-.042 2-.792 4t-2.333 3.584l-3.709 3.666V35Zm1.417-1.417h13V25.5l4.083-4.083q1.375-1.375 2.062-3.084.688-1.708.688-3.5 0-1.791-.667-3.479-.666-1.687-2.041-3.062L26.542 6.5l-5.709 5.708H14.75l-1.917 1.917 3.5 3.458q1.084 1.084 1.605 2.417.52 1.333.52 2.792 0 1.166-.375 2.333-.375 1.167-1.125 2.167L11.167 21.5Z"/></svg>